<svg width="21" height="21" viewBox="0 0 21 21" fill="none" xmlns="http://www.w3.org/2000/svg">
<g clip-path="url(#clip0_69_3287)">
<path d="M3.82931 21H17.1723H18.3073H21.0006V18.3063V17.6161V3.38399V2.69324V0H18.3073H17.1723H3.82931H2.69432H0.000808716V2.69324V3.38422V17.616V18.3063V21H2.69405H3.82931V21ZM14.3563 3.28109C14.3563 3.02582 14.4472 2.80538 14.6298 2.61775C14.8119 2.43136 15.035 2.3379 15.2997 2.3379H17.6786C17.9428 2.3379 18.1661 2.43132 18.3485 2.61775C18.5307 2.80511 18.622 3.02582 18.622 3.28109V5.53693C18.622 5.80117 18.5307 6.02493 18.3485 6.20664C18.1661 6.38928 17.9428 6.48012 17.6786 6.48012H15.2994C15.035 6.48012 14.8117 6.38928 14.6295 6.20664C14.4471 6.02497 14.3561 5.80117 14.3561 5.53693V3.28109H14.3563ZM13.5016 8.37238C14.3263 9.16981 14.7388 10.1336 14.7388 11.2636C14.7388 12.3942 14.3263 13.3581 13.5016 14.1551C12.6764 14.953 11.6808 15.3514 10.5143 15.3514C9.35658 15.3514 8.36561 14.953 7.54074 14.1551C6.71559 13.3584 6.30351 12.3944 6.30351 11.2636C6.30351 10.1336 6.71583 9.16957 7.54074 8.37238C8.36561 7.57491 9.35681 7.17608 10.5143 7.17608C11.681 7.17608 12.6765 7.57518 13.5016 8.37238ZM5.64635 3.28109C5.64635 3.02582 5.73719 2.80538 5.91983 2.61775C6.10196 2.43136 6.32531 2.3379 6.58978 2.3379H7.09057C7.35481 2.3379 7.57811 2.43132 7.76052 2.61775C7.94289 2.80511 8.034 3.02582 8.034 3.28109V5.53693C8.034 5.80117 7.94293 6.02493 7.76052 6.20664C7.57811 6.38928 7.35481 6.48012 7.09057 6.48012H6.58978C6.32531 6.48012 6.10196 6.38928 5.91983 6.20664C5.73746 6.02497 5.64635 5.80117 5.64635 5.53693V3.28109ZM2.33875 3.28109C2.33875 3.02582 2.42981 2.80538 2.61222 2.61775C2.79436 2.43136 3.01747 2.3379 3.28217 2.3379H3.78297C4.04721 2.3379 4.27051 2.43132 4.45292 2.61775C4.63528 2.80511 4.72639 3.02582 4.72639 3.28109V5.53693C4.72639 5.80117 4.63532 6.02493 4.45292 6.20664C4.27051 6.38928 4.04721 6.48012 3.78297 6.48012H3.28217C3.0177 6.48012 2.79436 6.38928 2.61222 6.20664C2.42985 6.02497 2.33875 5.80117 2.33875 5.53693V3.28109ZM2.33875 18.2826V9.42318H4.26649C4.08408 9.99731 3.99301 10.5949 3.99301 11.2144C3.99301 12.964 4.6308 14.4572 5.90703 15.6918C7.18303 16.9267 8.71879 17.5438 10.5145 17.5438C11.6992 17.5438 12.7929 17.2619 13.7957 16.6962C14.7982 16.1318 15.5912 15.3632 16.1745 14.3928C16.7577 13.422 17.0493 12.3625 17.0493 11.2142C17.0493 10.5946 16.9583 9.99708 16.7759 9.42295H18.6215V18.2827C18.6215 18.5197 18.5394 18.718 18.3755 18.8771C18.2116 19.0373 18.0155 19.1163 17.7877 19.1163H3.17262C2.9356 19.1163 2.73734 19.0373 2.5779 18.8771C2.41845 18.7179 2.33875 18.5197 2.33875 18.2826Z" fill="white"/>
</g>
<defs>
<clipPath id="clip0_69_3287">
<rect width="21" height="21" fill="white"/>
</clipPath>
</defs>
</svg>
