<svg width="128" height="30" viewBox="0 0 128 30" fill="none" xmlns="http://www.w3.org/2000/svg">
<path d="M1.27266 22.8L2.13149 8.2H15.8685L16.7273 22.8H1.27266Z" stroke="white" stroke-width="2.4"/>
<path d="M5 7V5C5 4.44772 5.44772 4 6 4H12C12.5523 4 13 4.44772 13 5V7" stroke="white" stroke-width="2.4"/>
<path d="M33.4941 11H32.0762V4.15039L29.9844 4.86523V3.66406L33.3125 2.43945H33.4941V11ZM41.2927 11H39.8689V4.66016H41.2927V11ZM39.781 3.01367C39.781 2.79492 39.8494 2.61328 39.9861 2.46875C40.1267 2.32422 40.3259 2.25195 40.5837 2.25195C40.8416 2.25195 41.0408 2.32422 41.1814 2.46875C41.322 2.61328 41.3923 2.79492 41.3923 3.01367C41.3923 3.22852 41.322 3.4082 41.1814 3.55273C41.0408 3.69336 40.8416 3.76367 40.5837 3.76367C40.3259 3.76367 40.1267 3.69336 39.9861 3.55273C39.8494 3.4082 39.781 3.22852 39.781 3.01367ZM44.7526 3.11914V4.66016H45.8717V5.71484H44.7526V9.25391C44.7526 9.49609 44.7995 9.67188 44.8932 9.78125C44.9909 9.88672 45.1627 9.93945 45.4088 9.93945C45.5729 9.93945 45.7389 9.91992 45.9069 9.88086V10.9824C45.5827 11.0723 45.2702 11.1172 44.9694 11.1172C43.8756 11.1172 43.3287 10.5137 43.3287 9.30664V5.71484H42.2858V4.66016H43.3287V3.11914H44.7526ZM49.8765 11.1172C48.9741 11.1172 48.2417 10.834 47.6792 10.2676C47.1206 9.69727 46.8413 8.93945 46.8413 7.99414V7.81836C46.8413 7.18555 46.9624 6.62109 47.2046 6.125C47.4507 5.625 47.7945 5.23633 48.2359 4.95898C48.6773 4.68164 49.1695 4.54297 49.7124 4.54297C50.5757 4.54297 51.2417 4.81836 51.7105 5.36914C52.1831 5.91992 52.4195 6.69922 52.4195 7.70703V8.28125H48.2769C48.3198 8.80469 48.4937 9.21875 48.7984 9.52344C49.107 9.82812 49.4937 9.98047 49.9585 9.98047C50.6109 9.98047 51.1421 9.7168 51.5523 9.18945L52.3198 9.92188C52.0659 10.3008 51.7261 10.5957 51.3003 10.8066C50.8784 11.0137 50.4038 11.1172 49.8765 11.1172ZM49.7066 5.68555C49.3159 5.68555 48.9995 5.82227 48.7573 6.0957C48.5191 6.36914 48.3667 6.75 48.3003 7.23828H51.0132V7.13281C50.982 6.65625 50.855 6.29688 50.6323 6.05469C50.4097 5.80859 50.1011 5.68555 49.7066 5.68555ZM54.9887 4.66016L55.0297 5.32227C55.475 4.80273 56.0844 4.54297 56.8578 4.54297C57.7055 4.54297 58.2855 4.86719 58.598 5.51562C59.059 4.86719 59.7074 4.54297 60.5434 4.54297C61.2426 4.54297 61.7621 4.73633 62.102 5.12305C62.4457 5.50977 62.6215 6.08008 62.6293 6.83398V11H61.2055V6.875C61.2055 6.47266 61.1176 6.17773 60.9418 5.99023C60.766 5.80273 60.475 5.70898 60.0688 5.70898C59.7445 5.70898 59.4789 5.79688 59.2719 5.97266C59.0688 6.14453 58.9262 6.37109 58.8441 6.65234L58.85 11H57.4262V6.82812C57.4066 6.08203 57.0258 5.70898 56.2836 5.70898C55.7133 5.70898 55.309 5.94141 55.0707 6.40625V11H53.6469V4.66016H54.9887ZM64.2317 7.53125C64.2317 6.62891 64.3528 5.77344 64.595 4.96484C64.8372 4.15234 65.1927 3.42773 65.6614 2.79102C66.1302 2.15039 66.6263 1.70117 67.1497 1.44336L67.4309 2.27539C66.8802 2.69336 66.4329 3.33203 66.0891 4.19141C65.7493 5.04688 65.5638 6.02734 65.5325 7.13281L65.5266 7.63672C65.5266 8.82031 65.6927 9.87695 66.0247 10.8066C66.3606 11.7324 66.8294 12.4375 67.4309 12.9219L67.1497 13.7129C66.6263 13.4551 66.1282 13.0039 65.6555 12.3594C65.1868 11.7188 64.8313 10.9961 64.5891 10.1914C64.3509 9.38281 64.2317 8.49609 64.2317 7.53125ZM72.0685 9.27734C72.0685 9.02344 71.963 8.83008 71.7521 8.69727C71.5451 8.56445 71.1994 8.44727 70.715 8.3457C70.2306 8.24414 69.8263 8.11523 69.5021 7.95898C68.7912 7.61523 68.4357 7.11719 68.4357 6.46484C68.4357 5.91797 68.6662 5.46094 69.1271 5.09375C69.588 4.72656 70.174 4.54297 70.8849 4.54297C71.6427 4.54297 72.2541 4.73047 72.7189 5.10547C73.1877 5.48047 73.422 5.9668 73.422 6.56445H71.9982C71.9982 6.29102 71.8966 6.06445 71.6935 5.88477C71.4904 5.70117 71.2209 5.60938 70.8849 5.60938C70.5724 5.60938 70.3166 5.68164 70.1173 5.82617C69.922 5.9707 69.8244 6.16406 69.8244 6.40625C69.8244 6.625 69.9162 6.79492 70.0998 6.91602C70.2834 7.03711 70.6545 7.16016 71.213 7.28516C71.7716 7.40625 72.2091 7.55273 72.5255 7.72461C72.8459 7.89258 73.0822 8.0957 73.2345 8.33398C73.3908 8.57227 73.4689 8.86133 73.4689 9.20117C73.4689 9.77148 73.2326 10.2344 72.7599 10.5898C72.2873 10.9414 71.6681 11.1172 70.9025 11.1172C70.383 11.1172 69.9201 11.0234 69.5138 10.8359C69.1076 10.6484 68.7912 10.3906 68.5646 10.0625C68.338 9.73438 68.2248 9.38086 68.2248 9.00195H69.6076C69.6271 9.33789 69.7541 9.59766 69.9884 9.78125C70.2228 9.96094 70.5334 10.0508 70.9201 10.0508C71.2951 10.0508 71.5802 9.98047 71.7755 9.83984C71.9709 9.69531 72.0685 9.50781 72.0685 9.27734ZM77.5791 7.625C77.5791 8.49219 77.46 9.33008 77.2217 10.1387C76.9834 10.9434 76.6221 11.6758 76.1377 12.3359C75.6534 13 75.1475 13.459 74.6202 13.7129L74.3389 12.9219C74.9248 12.4688 75.3877 11.7773 75.7276 10.8477C76.0713 9.91406 76.2432 8.84961 76.2432 7.6543V7.51953C76.2432 6.43359 76.0948 5.44531 75.7979 4.55469C75.501 3.66016 75.0752 2.94336 74.5205 2.4043L74.3389 2.24023L74.6202 1.44336C75.1202 1.68555 75.6045 2.11523 76.0733 2.73242C76.542 3.34961 76.9014 4.04102 77.1514 4.80664C77.4014 5.56836 77.542 6.35547 77.5733 7.16797L77.5791 7.625Z" fill="white"/>
<path d="M34.4824 17.0264V27H32.5137V19.2959L30.1484 20.0479V18.4961L34.2705 17.0264H34.4824ZM39.8793 21.1689H40.932C41.2692 21.1689 41.5472 21.112 41.766 20.998C41.9847 20.8796 42.1465 20.7155 42.2513 20.5059C42.3607 20.2917 42.4154 20.0433 42.4154 19.7607C42.4154 19.5055 42.3653 19.2799 42.265 19.084C42.1693 18.8835 42.0212 18.7285 41.8207 18.6191C41.6201 18.5052 41.3672 18.4482 41.0619 18.4482C40.8203 18.4482 40.597 18.4961 40.392 18.5918C40.1869 18.6875 40.0228 18.8219 39.8998 18.9951C39.7767 19.1683 39.7152 19.3779 39.7152 19.624H37.7396C37.7396 19.0771 37.8854 18.6009 38.1771 18.1953C38.4733 17.7897 38.8698 17.473 39.3666 17.2451C39.8633 17.0173 40.4102 16.9033 41.0072 16.9033C41.6817 16.9033 42.2718 17.0127 42.7777 17.2314C43.2836 17.4456 43.6778 17.7624 43.9603 18.1816C44.2429 18.6009 44.3841 19.1204 44.3841 19.7402C44.3841 20.0547 44.3112 20.36 44.1654 20.6562C44.0196 20.9479 43.8099 21.2122 43.5365 21.4492C43.2676 21.6816 42.9395 21.8685 42.5521 22.0098C42.1647 22.1465 41.7295 22.2148 41.2464 22.2148H39.8793V21.1689ZM39.8793 22.666V21.6475H41.2464C41.7888 21.6475 42.265 21.709 42.6752 21.832C43.0853 21.9551 43.4294 22.1328 43.7074 22.3652C43.9854 22.5931 44.195 22.8643 44.3363 23.1787C44.4776 23.4886 44.5482 23.8327 44.5482 24.2109C44.5482 24.6758 44.4593 25.0905 44.2816 25.4551C44.1039 25.8151 43.8532 26.1204 43.5296 26.3711C43.2106 26.6217 42.8369 26.8132 42.4086 26.9453C41.9802 27.0729 41.513 27.1367 41.0072 27.1367C40.5879 27.1367 40.1755 27.0798 39.7699 26.9658C39.3688 26.8473 39.0043 26.6719 38.6761 26.4395C38.3526 26.2025 38.0928 25.9062 37.8968 25.5508C37.7054 25.1908 37.6097 24.7646 37.6097 24.2725H39.5853C39.5853 24.5277 39.6491 24.7555 39.7767 24.9561C39.9043 25.1566 40.0798 25.3138 40.3031 25.4277C40.531 25.5417 40.7839 25.5986 41.0619 25.5986C41.3763 25.5986 41.6452 25.5417 41.8685 25.4277C42.0964 25.3092 42.2696 25.1452 42.388 24.9355C42.5111 24.7214 42.5726 24.473 42.5726 24.1904C42.5726 23.8258 42.5065 23.5342 42.3744 23.3154C42.2422 23.0921 42.0531 22.9281 41.807 22.8232C41.5609 22.7184 41.2692 22.666 40.932 22.666H39.8793ZM47.4363 25.5029H47.5661C48.113 25.5029 48.5824 25.4368 48.9743 25.3047C49.3708 25.168 49.6967 24.972 49.9519 24.7168C50.2071 24.4616 50.3962 24.1494 50.5193 23.7803C50.6423 23.4066 50.7038 22.9827 50.7038 22.5088V20.6221C50.7038 20.262 50.6674 19.9453 50.5945 19.6719C50.5261 19.3984 50.4258 19.1729 50.2937 18.9951C50.1661 18.8128 50.0157 18.6761 49.8425 18.585C49.6739 18.4938 49.487 18.4482 49.282 18.4482C49.0632 18.4482 48.8695 18.5029 48.7009 18.6123C48.5323 18.7171 48.3887 18.8607 48.2702 19.043C48.1563 19.2253 48.0674 19.4349 48.0036 19.6719C47.9444 19.9043 47.9148 20.1481 47.9148 20.4033C47.9148 20.6585 47.9444 20.9023 48.0036 21.1348C48.0629 21.3626 48.1517 21.5654 48.2702 21.7432C48.3887 21.9163 48.5368 22.0553 48.7146 22.1602C48.8923 22.2604 49.1019 22.3105 49.3435 22.3105C49.5759 22.3105 49.7833 22.2673 49.9655 22.1807C50.1524 22.0895 50.3096 21.971 50.4372 21.8252C50.5694 21.6794 50.6696 21.5176 50.738 21.3398C50.8109 21.1621 50.8474 20.9821 50.8474 20.7998L51.4968 21.1553C51.4968 21.4743 51.4284 21.7887 51.2917 22.0986C51.155 22.4085 50.9636 22.6911 50.7175 22.9463C50.476 23.1969 50.1957 23.3975 49.8767 23.5479C49.5577 23.6982 49.2159 23.7734 48.8513 23.7734C48.3864 23.7734 47.974 23.6891 47.614 23.5205C47.254 23.3473 46.9486 23.1104 46.698 22.8096C46.4519 22.5042 46.265 22.1488 46.1374 21.7432C46.0098 21.3376 45.946 20.8978 45.946 20.4238C45.946 19.9408 46.0235 19.4873 46.1784 19.0635C46.3379 18.6396 46.5635 18.266 46.8552 17.9424C47.1514 17.6188 47.5046 17.3659 47.9148 17.1836C48.3295 16.9967 48.7898 16.9033 49.2956 16.9033C49.8015 16.9033 50.2618 17.0013 50.6765 17.1973C51.0912 17.3932 51.4467 17.6712 51.7429 18.0312C52.0391 18.3867 52.267 18.8128 52.4265 19.3096C52.5905 19.8063 52.6726 20.3577 52.6726 20.9639V21.6475C52.6726 22.2946 52.6019 22.8962 52.4607 23.4521C52.3239 24.0081 52.1166 24.5117 51.8386 24.9629C51.5652 25.4095 51.2234 25.7923 50.8132 26.1113C50.4076 26.4303 49.9359 26.6742 49.3982 26.8428C48.8604 27.0114 48.2588 27.0957 47.5935 27.0957H47.4363V25.5029ZM56.169 25.3389L56.1622 26.6582C56.1622 27.1641 56.0346 27.6745 55.7794 28.1895C55.5287 28.7044 55.2097 29.126 54.8223 29.4541L53.797 28.9277C53.9109 28.7181 54.0225 28.5085 54.1319 28.2988C54.2413 28.0892 54.3324 27.859 54.4054 27.6084C54.4783 27.3577 54.5147 27.0729 54.5147 26.7539V25.3389H56.169ZM64.5053 21.1484V22.8711C64.5053 23.6185 64.4256 24.2633 64.2661 24.8057C64.1065 25.3434 63.8764 25.7855 63.5756 26.1318C63.2794 26.4736 62.9262 26.7266 62.5161 26.8906C62.1059 27.0547 61.6502 27.1367 61.1489 27.1367C60.7478 27.1367 60.3741 27.0866 60.0278 26.9863C59.6814 26.8815 59.3692 26.7197 59.0912 26.501C58.8178 26.2822 58.5808 26.0065 58.3803 25.6738C58.1843 25.3366 58.034 24.9355 57.9291 24.4707C57.8243 24.0059 57.7719 23.4727 57.7719 22.8711V21.1484C57.7719 20.401 57.8517 19.7607 58.0112 19.2275C58.1752 18.6898 58.4054 18.25 58.7016 17.9082C59.0024 17.5664 59.3579 17.3158 59.768 17.1562C60.1782 16.9922 60.6339 16.9102 61.1352 16.9102C61.5362 16.9102 61.9077 16.9626 62.2495 17.0674C62.5958 17.1676 62.908 17.3249 63.186 17.5391C63.464 17.7533 63.7009 18.029 63.8969 18.3662C64.0929 18.6989 64.2433 19.0977 64.3481 19.5625C64.4529 20.0228 64.5053 20.5514 64.5053 21.1484ZM62.5297 23.1309V20.8818C62.5297 20.5218 62.5092 20.2074 62.4682 19.9385C62.4317 19.6696 62.3748 19.4417 62.2973 19.2549C62.2198 19.0635 62.1241 18.9085 62.0102 18.79C61.8963 18.6715 61.7664 18.585 61.6205 18.5303C61.4747 18.4756 61.3129 18.4482 61.1352 18.4482C60.9119 18.4482 60.7136 18.4915 60.5405 18.5781C60.3718 18.6647 60.2283 18.8037 60.1098 18.9951C59.9913 19.182 59.9002 19.4326 59.8364 19.7471C59.7771 20.057 59.7475 20.4352 59.7475 20.8818V23.1309C59.7475 23.4909 59.7657 23.8076 59.8022 24.0811C59.8432 24.3545 59.9024 24.5892 59.9799 24.7852C60.062 24.9766 60.1577 25.1338 60.267 25.2568C60.381 25.3753 60.5108 25.4619 60.6567 25.5166C60.8071 25.5713 60.9711 25.5986 61.1489 25.5986C61.3676 25.5986 61.5613 25.5553 61.7299 25.4688C61.9031 25.3776 62.0489 25.2363 62.1674 25.0449C62.2905 24.849 62.3816 24.5938 62.4409 24.2793C62.5001 23.9648 62.5297 23.582 62.5297 23.1309ZM72.6844 21.1484V22.8711C72.6844 23.6185 72.6046 24.2633 72.4451 24.8057C72.2856 25.3434 72.0555 25.7855 71.7547 26.1318C71.4585 26.4736 71.1053 26.7266 70.6951 26.8906C70.285 27.0547 69.8292 27.1367 69.3279 27.1367C68.9269 27.1367 68.5532 27.0866 68.2068 26.9863C67.8605 26.8815 67.5483 26.7197 67.2703 26.501C66.9969 26.2822 66.7599 26.0065 66.5594 25.6738C66.3634 25.3366 66.213 24.9355 66.1082 24.4707C66.0034 24.0059 65.951 23.4727 65.951 22.8711V21.1484C65.951 20.401 66.0307 19.7607 66.1902 19.2275C66.3543 18.6898 66.5844 18.25 66.8807 17.9082C67.1814 17.5664 67.5369 17.3158 67.9471 17.1562C68.3572 16.9922 68.813 16.9102 69.3143 16.9102C69.7153 16.9102 70.0867 16.9626 70.4285 17.0674C70.7749 17.1676 71.087 17.3249 71.365 17.5391C71.643 17.7533 71.88 18.029 72.076 18.3662C72.2719 18.6989 72.4223 19.0977 72.5271 19.5625C72.632 20.0228 72.6844 20.5514 72.6844 21.1484ZM70.7088 23.1309V20.8818C70.7088 20.5218 70.6883 20.2074 70.6473 19.9385C70.6108 19.6696 70.5538 19.4417 70.4764 19.2549C70.3989 19.0635 70.3032 18.9085 70.1893 18.79C70.0753 18.6715 69.9454 18.585 69.7996 18.5303C69.6538 18.4756 69.492 18.4482 69.3143 18.4482C69.091 18.4482 68.8927 18.4915 68.7195 18.5781C68.5509 18.6647 68.4074 18.8037 68.2889 18.9951C68.1704 19.182 68.0792 19.4326 68.0154 19.7471C67.9562 20.057 67.9266 20.4352 67.9266 20.8818V23.1309C67.9266 23.4909 67.9448 23.8076 67.9813 24.0811C68.0223 24.3545 68.0815 24.5892 68.159 24.7852C68.241 24.9766 68.3367 25.1338 68.4461 25.2568C68.56 25.3753 68.6899 25.4619 68.8357 25.5166C68.9861 25.5713 69.1502 25.5986 69.3279 25.5986C69.5467 25.5986 69.7404 25.5553 69.909 25.4688C70.0822 25.3776 70.228 25.2363 70.3465 25.0449C70.4695 24.849 70.5607 24.5938 70.6199 24.2793C70.6792 23.9648 70.7088 23.582 70.7088 23.1309ZM84.6743 25.4004V27H79.3765V25.4004H84.6743ZM80.0464 17.0469V27H77.9956V17.0469H80.0464ZM83.9839 21.1006V22.6592H79.3765V21.1006H83.9839ZM84.6675 17.0469V18.6533H79.3765V17.0469H84.6675ZM91.5067 17.0469H93.5507V23.623C93.5507 24.3887 93.3866 25.0335 93.0585 25.5576C92.7349 26.0817 92.286 26.4759 91.7118 26.7402C91.1421 27.0046 90.4859 27.1367 89.743 27.1367C89.0002 27.1367 88.3394 27.0046 87.7606 26.7402C87.1864 26.4759 86.7352 26.0817 86.4071 25.5576C86.0835 25.0335 85.9218 24.3887 85.9218 23.623V17.0469H87.9725V23.623C87.9725 24.0697 88.0432 24.4342 88.1845 24.7168C88.3257 24.9993 88.5285 25.2067 88.7929 25.3389C89.0617 25.471 89.3785 25.5371 89.743 25.5371C90.1167 25.5371 90.4335 25.471 90.6932 25.3389C90.9576 25.2067 91.1581 24.9993 91.2948 24.7168C91.4361 24.4342 91.5067 24.0697 91.5067 23.623V17.0469ZM95.3791 17.0469H99.0911C99.8521 17.0469 100.506 17.1608 101.053 17.3887C101.604 17.6165 102.028 17.9538 102.324 18.4004C102.621 18.847 102.769 19.3962 102.769 20.0479C102.769 20.5811 102.678 21.0391 102.495 21.4219C102.318 21.8001 102.065 22.1169 101.737 22.3721C101.413 22.6227 101.032 22.8232 100.595 22.9736L99.9455 23.3154H96.719L96.7053 21.7158H99.1047C99.4648 21.7158 99.7633 21.652 100 21.5244C100.237 21.3968 100.415 21.2191 100.533 20.9912C100.656 20.7633 100.718 20.499 100.718 20.1982C100.718 19.8792 100.659 19.6035 100.54 19.3711C100.422 19.1387 100.242 18.9609 100 18.8379C99.7587 18.7148 99.4556 18.6533 99.0911 18.6533H97.4299V27H95.3791V17.0469ZM100.944 27L98.6741 22.5635L100.841 22.5498L103.138 26.9043V27H100.944Z" fill="white"/>
</svg>
